<svg id="bg_traffic" xmlns="http://www.w3.org/2000/svg" width="400" height="65" viewBox="0 0 400 65">
    <defs>
        <clipPath id="clip-path">
            <path id="사각형_3517" data-name="사각형 3517" style="fill:none" d="M0 0h57v56.999H0z"/>
        </clipPath>
        <style>
            .cls-4{fill:#ffeed0}.cls-5{fill:#d2ddeb}
        </style>
    </defs>
    <path id="사각형_3508" data-name="사각형 3508" style="fill:#fff" d="M0 0h400v65H0z"/>
    <g id="그룹_2811" data-name="그룹 2811" transform="translate(300 8)">
        <g id="그룹_2810" data-name="그룹 2810" style="clip-path:url(#clip-path)">
            <path id="패스_2680" data-name="패스 2680" class="cls-4" d="M268.587 224.824a2.758 2.758 0 1 0-2.758-2.758 2.759 2.759 0 0 0 2.758 2.758" transform="translate(-251.12 -188.969)"/>
            <path id="패스_2681" data-name="패스 2681" class="cls-4" d="M348.333 224.824a2.758 2.758 0 1 0-2.758-2.758 2.759 2.759 0 0 0 2.758 2.758" transform="translate(-341.898 -188.969)"/>
            <path id="사각형_3515" data-name="사각형 3515" class="cls-4" transform="translate(10.113 43.21)" d="M0 0h3.677v7.355H0z"/>
            <path id="사각형_3516" data-name="사각형 3516" class="cls-4" transform="translate(34.016 21.145)" d="M0 0h3.677v7.355H0z"/>
            <path id="패스_2682" data-name="패스 2682" class="cls-4" d="m114.586 272.263.6-4.823a1.841 1.841 0 0 1 1.824-1.613h5.731a1.841 1.841 0 0 1 1.824 1.613l.6 4.823z" transform="translate(-84.025 -229.053)"/>
            <path id="패스_2683" data-name="패스 2683" class="cls-5" d="M136.591 28.421a1.839 1.839 0 1 0 1.838 1.838 1.842 1.842 0 0 0-1.838-1.838m0 5.516a3.677 3.677 0 1 1 3.677-3.677 3.68 3.68 0 0 1-3.677 3.677" transform="translate(-101.656 -22.905)"/>
            <path id="패스_2684" data-name="패스 2684" class="cls-5" d="M203.048 28.421a1.839 1.839 0 1 0 1.838 1.838 1.842 1.842 0 0 0-1.838-1.838m0 5.516a3.677 3.677 0 1 1 3.677-3.677 3.68 3.68 0 0 1-3.677 3.677" transform="translate(-177.306 -22.905)"/>
            <path id="패스_2685" data-name="패스 2685" class="cls-5" d="M269.505 28.421a1.839 1.839 0 1 0 1.839 1.838 1.842 1.842 0 0 0-1.839-1.838m0 5.516a3.677 3.677 0 1 1 3.677-3.677 3.68 3.68 0 0 1-3.677 3.677" transform="translate(-252.957 -22.905)"/>
            <path id="패스_2686" data-name="패스 2686" class="cls-5" d="M241.084 141.188a.922.922 0 0 0 .92.92h.4l.115-1.839h-1.433zm.92 9.194a.921.921 0 0 0 .919.92h16.548a.921.921 0 0 0 .919-.92V146.7a2.759 2.759 0 0 0-2.758-2.758h-12.87A2.759 2.759 0 0 0 242 146.7zm3.677 2.758h-1.839v1.839h1.839zm11.032 1.839h1.839v-1.839h-1.839zm4.6-14.71h-1.433l.115 1.839h.4a.922.922 0 0 0 .92-.92zm-6.213-5.516h-7.8a2.756 2.756 0 0 0-2.586 1.839h12.972a2.756 2.756 0 0 0-2.586-1.839m-10.62 3.678-.233 3.731a4.055 4.055 0 0 1 .517-.054h12.871a4.074 4.074 0 0 1 .517.054l-.233-3.731zm-3.394 0h1.548l.079-1.207a4.6 4.6 0 0 1 4.586-4.31h7.8a4.6 4.6 0 0 1 4.586 4.31l.079 1.207h1.548a1.842 1.842 0 0 1 1.838 1.838v.919a2.749 2.749 0 0 1-1.968 2.629 4.564 4.564 0 0 1 1.049 2.887v3.677a2.758 2.758 0 0 1-1.839 2.589v2.008a1.842 1.842 0 0 1-1.838 1.838h-1.839a1.842 1.842 0 0 1-1.838-1.838v-1.838h-7.357v1.839a1.842 1.842 0 0 1-1.839 1.838h-1.839a1.842 1.842 0 0 1-1.842-1.838v-2.008a2.758 2.758 0 0 1-1.839-2.589V146.7a4.563 4.563 0 0 1 1.049-2.887 2.749 2.749 0 0 1-1.968-2.629v-.919a1.842 1.842 0 0 1 1.838-1.838" transform="translate(-239.246 -114.527)"/>
            <path id="패스_2687" data-name="패스 2687" class="cls-5" d="M45.967 57V5.515H33.1v3.678h9.19V57h-1.839V11.031H33a4.6 4.6 0 0 1-4.5 3.678H4.6a4.6 4.6 0 0 1-4.6-4.6V4.6A4.6 4.6 0 0 1 4.6 0h23.9A4.6 4.6 0 0 1 33 3.676h14.8V57zM31.258 4.6A2.759 2.759 0 0 0 28.5 1.838H4.6A2.759 2.759 0 0 0 1.838 4.6v5.516A2.759 2.759 0 0 0 4.6 12.87h23.9a2.759 2.759 0 0 0 2.758-2.758z" transform="translate(9.194 .001)"/>
            <path id="패스_2688" data-name="패스 2688" class="cls-5" d="M68.3 244.757h1.548l.079-1.207a4.6 4.6 0 0 1 4.586-4.31h7.8a4.6 4.6 0 0 1 4.586 4.31l.079 1.207h1.548a1.843 1.843 0 0 1 1.834 1.843v.919a2.75 2.75 0 0 1-1.968 2.629 4.563 4.563 0 0 1 1.049 2.887v3.677A2.758 2.758 0 0 1 87.6 259.3v2.007a1.842 1.842 0 0 1-1.838 1.838h-1.837a1.842 1.842 0 0 1-1.838-1.838v-1.835h-7.356v1.838a1.842 1.842 0 0 1-1.838 1.838h-1.839a1.842 1.842 0 0 1-1.838-1.838V259.3a2.757 2.757 0 0 1-1.839-2.59v-3.677a4.565 4.565 0 0 1 1.048-2.887 2.75 2.75 0 0 1-1.968-2.629v-.917a1.843 1.843 0 0 1 1.839-1.839m16.764-1.092a2.759 2.759 0 0 0-2.751-2.586h-7.8a2.759 2.759 0 0 0-2.751 2.586l-.3 4.823a3.994 3.994 0 0 1 .517-.054h12.869a4 4 0 0 1 .517.054zm-12 6.608.23 1.372a2.749 2.749 0 0 0 2.723 2.305h4.8a2.749 2.749 0 0 0 2.723-2.305l.23-1.372zm15.464-2.758v-.919h-1.435l.115 1.839h.4a.921.921 0 0 0 .919-.919m-4.6 13.79h1.839v-1.835h-1.837v1.838zm-12.871 0h1.839v-1.835h-1.837v1.663zm-1.839-4.6a.921.921 0 0 0 .919.919h16.551a.921.921 0 0 0 .919-.919v-3.677a2.753 2.753 0 0 0-2-2.64l-.258 1.559a4.582 4.582 0 0 1-4.536 3.839h-4.8a4.583 4.583 0 0 1-4.536-3.839l-.258-1.559a2.754 2.754 0 0 0-2 2.64zm-.919-9.194a.921.921 0 0 0 .919.919h.4l.115-1.839H68.3z" transform="translate(-42.554 -206.145)"/>
        </g>
    </g>
</svg>
