<svg xmlns="http://www.w3.org/2000/svg" width="200.001" height="100.002" viewBox="0 0 200.001 100.002">
    <path data-name="이미지 115" style="fill:#1f5499" d="M0 0h200v100H0z"/>
    <g data-name="그룹 2752">
        <path data-name="패스 2605" d="M0 30.433v5.519l6.622-5.519z" transform="translate(.001 .001)" style="fill:#1f488b"/>
        <path data-name="패스 2606" d="M151.089 74.233 120.168 100h16.278l30.92-25.767z" transform="translate(.001 .001)" style="fill:#1f488b"/>
        <path data-name="패스 2607" d="m186.254 44.97-22.983 19.111h16.275L200 47.072v-2.1z" transform="translate(.001 .001)" style="fill:#1b4987"/>
        <path data-name="패스 2608" d="M30.772 6.713h.005z" transform="translate(.001 .001)" style="fill:#1f488b"/>
        <path data-name="패스 2609" d="m60.827 0-8.055 6.713z" transform="translate(.001 .001)" style="fill:#1f488b"/>
        <path data-name="패스 2610" d="m60.825 0-8.054 6.709H30.777h22L60.828 0z" transform="translate(.001 .001)" style="fill:#1b4987"/>
        <path data-name="사각형 3401" transform="rotate(-39.8 24.659 -39.155)" style="fill:#1d5197" d="M0 0h10.481v.004H0z"/>
        <path data-name="패스 2611" d="m38.828 0-8.051 6.709z" transform="translate(.001 .001)" style="fill:#1d5197"/>
        <path data-name="패스 2612" d="m38.828 0-8.051 6.709h21.994L60.825 0z" transform="translate(.001 .001)" style="fill:#1d5197"/>
        <path data-name="패스 2613" d="M101.315 74.231h-6.332L64.061 100h6.334l30.922-25.769z" transform="translate(.001 .001)" style="fill:#1b4987"/>
        <path data-name="패스 2614" d="M144.112 38.565h-6.334l-42.8 35.668h6.332z" transform="translate(.001 .001)" style="fill:#1d5197"/>
        <path data-name="패스 2615" d="M94.982 74.233h6.33z" transform="translate(.001 .001)" style="fill:#1d5197"/>
        <path data-name="사각형 3402" transform="rotate(-39.805 79.22 28.681)" style="fill:#1b4987" d="M0 0h13.853v.001H0z"/>
        <path data-name="패스 2616" d="M68.832 0 62.94 4.91h23.194l-20.3 16.915-52.3 43.582H0v11.285L92.028 0z" transform="translate(.001 .001)" style="fill:#1b4987"/>
        <path data-name="패스 2617" d="M10.634 48.492h.008L62.94 4.91h-.006z" transform="translate(.001 .001)" style="fill:#1d5197"/>
        <path data-name="패스 2618" d="m10.643 48.492 32-26.667h23.193L86.134 4.91H62.94l-52.3 43.582z" transform="translate(.001 .001)" style="fill:#1d5197"/>
        <path data-name="패스 2619" d="M100.863 0 0 84.053V92.9l93.156-77.628H82.538L100.864 0z" transform="translate(.001 .001)" style="fill:#1d5197"/>
        <path data-name="사각형 3403" transform="rotate(-39.805 67.67 -121.018)" style="fill:#1f488b" d="M0 0h23.856v.002H0z"/>
        <path data-name="패스 2620" d="M100.864 0 82.538 15.272h10.618L111.483 0z" transform="translate(.001 .001)" style="fill:#1f488b"/>
        <path data-name="패스 2621" d="M0 0v4.481L5.378 0z" transform="translate(.001 .001)" style="fill:#1b4987"/>
        <path data-name="패스 2622" d="M14.1 0 0 11.752v11.691L28.133 0z" transform="translate(.001 .001)" style="fill:#1b4987"/>
        <path data-name="패스 2623" d="M5.378 0 0 4.481v7.271L14.1 0z" transform="translate(.001 .001)" style="fill:#1f488b"/>
        <path data-name="패스 2624" d="M190.01 100h3.5l6.49-5.409v-2.917z" transform="translate(.001 .001)" style="fill:#1f488b"/>
        <path data-name="패스 2625" d="M105.491 100h3.5l30.922-25.768h-3.5z" transform="translate(.001 .001)" style="fill:#1d5197"/>
        <path data-name="패스 2626" d="M0 44.079V47l32.181-26.821h-3.5z" transform="translate(.001 .001)" style="fill:#1b4987"/>
        <path data-name="패스 2627" d="M198.045 1.217 79.51 100h8.728L200 6.862V1.217z" transform="translate(.001 .001)" style="fill:#1b4e94"/>
        <path data-name="패스 2628" d="M23.836 92.725 15.106 100H36.4l8.729-7.275z" transform="translate(.001 .001)" style="fill:#1b4987"/>
        <path data-name="패스 2629" d="M36.008 82.576h21.3l22.944-19.12h-21.3z" transform="translate(.001 .001)" style="fill:#1f488b"/>
        <path data-name="패스 2630" d="M66.235 57.389h21.3l11.812-9.844h-21.3z" transform="translate(.001 .001)" style="fill:#1d5197"/>
        <path data-name="패스 2631" d="M96.343 32.3h21.3l36.966-30.806h-21.3z" transform="translate(.001 .001)" style="fill:#1b4987"/>
        <path data-name="패스 2632" d="m65.835 21.825-32 26.667H10.642L0 57.361v8.046h13.537l52.3-43.582z" transform="translate(.001 .001)" style="fill:#1b4e94"/>
        <path data-name="패스 2633" d="M10.643 48.492h23.191l32-26.667h-23.19z" transform="translate(.001 .001)" style="fill:#1b4e94"/>
    </g>
</svg>
