<svg id="btn_list_edit_n" xmlns="http://www.w3.org/2000/svg" width="22" height="21.999" viewBox="0 0 22 21.999">
    <defs>
        <style>
            .cls-1{fill:#4579bd}
        </style>
    </defs>
    <path id="패스_153" data-name="패스 153" class="cls-1" d="M488.535 372.717h-13.2a2.4 2.4 0 0 1-2.4-2.4v-13.2a2.4 2.4 0 0 1 2.4-2.4h8.644a.818.818 0 1 1 0 1.636h-8.644a.765.765 0 0 0-.764.764v13.2a.765.765 0 0 0 .764.764h13.2a.765.765 0 0 0 .764-.764v-8.644a.818.818 0 0 1 1.636 0v8.644a2.4 2.4 0 0 1-2.4 2.4z" transform="translate(-472.936 -350.718)"/>
    <g id="그룹_301" data-name="그룹 301" transform="translate(-.625)">
        <path id="패스_152" data-name="패스 152" class="cls-1" d="M633.218 352.672a.83.83 0 0 1 .587.243l2.694 2.7a.83.83 0 0 1 0 1.174l-11.36 11.36a.83.83 0 0 1-.508.24l-2.979.285a.831.831 0 0 1-.906-.906l.285-2.979a.831.831 0 0 1 .24-.508l11.36-11.36a.831.831 0 0 1 .587-.249zm1.519 3.525-1.519-1.52-10.562 10.562-.161 1.68 1.681-.161z" transform="translate(-614.117 -352.672)"/>
        <path id="선_5" data-name="선 5" class="cls-1" d="M2.524 3.356a.828.828 0 0 1-.587-.243L-.757.418a.831.831 0 0 1 0-1.175.831.831 0 0 1 1.175 0l2.694 2.7a.831.831 0 0 1-.587 1.418z" transform="translate(16.576 3.694)"/>
    </g>
</svg>
