<svg xmlns="http://www.w3.org/2000/svg" width="70" height="37.8" viewBox="0 0 70 37.8">
    <path data-name="패스 1441" d="M3252.261 1814.528a2.383 2.383 0 0 0-3.125-1.018l-13.123 5.45-.108-6.709a6.562 6.562 0 0 0-6.7-6.408h-40a6.561 6.561 0 0 0-6.7 6.408v24.984a6.561 6.561 0 0 0 6.7 6.408h40a6.562 6.562 0 0 0 6.7-6.408l.108-6.7 13.123 5.448a2.419 2.419 0 0 0 1.043.229 2.282 2.282 0 0 0 2.322-2.242v-18.457a2.16 2.16 0 0 0-.24-.985zm-43.055 18.906a8.7 8.7 0 1 1 9.09-8.69 8.9 8.9 0 0 1-9.09 8.69z" transform="translate(-3182.501 -1805.844)" style="fill:#e6e6e6"/>
</svg>
