<svg xmlns="http://www.w3.org/2000/svg" width="78" height="78" viewBox="0 0 78 78">
    <defs>
        <clipPath id="a">
            <path data-name="사각형 3451" style="fill:none" d="M0 0h48v28.579H0z"/>
        </clipPath>
    </defs>
    <g data-name="그룹 2770">
        <g data-name="그룹 2769" style="clip-path:url(#a)" transform="translate(15 25)">
            <path data-name="패스 2642" d="M41.774 16.13h-.194a7.441 7.441 0 0 0 .342-2.276 7.666 7.666 0 0 0-.077-1.091A7.7 7.7 0 0 0 40.718 9.7a7.75 7.75 0 0 0-3.242-2.858 7.73 7.73 0 0 0-1.02-.394A7.628 7.628 0 0 0 35.39 6.2a7.809 7.809 0 0 0-1.09-.094 7.762 7.762 0 0 0-2.165.275 7.708 7.708 0 0 0-2 .868 7.769 7.769 0 0 0-.889.637q-.1-.448-.236-.886c-.092-.292-.2-.58-.315-.862s-.25-.559-.394-.83-.3-.533-.467-.789-.347-.5-.538-.743-.392-.47-.6-.692-.433-.432-.665-.633-.471-.39-.719-.569-.5-.346-.769-.5-.534-.3-.811-.429-.566-.245-.853-.353S22.3.408 22 .329s-.6-.142-.9-.192A9.74 9.74 0 0 0 19.277 0c-.306 0-.612.025-.916.058s-.606.082-.906.142-.6.136-.89.225-.582.19-.866.3-.562.242-.834.383-.538.293-.8.457-.508.341-.75.528-.476.386-.7.6-.438.428-.642.656-.4.466-.578.713-.353.5-.512.761-.3.531-.439.806-.255.556-.363.843-.2.577-.285.872-.15.593-.2.9-.1.6-.121.909-.039.611-.038.917a9.747 9.747 0 0 0 .183 1.912 7.613 7.613 0 0 0-1.252-.091q-.345 0-.689.026a8.566 8.566 0 0 0-2.018.416 8.208 8.208 0 0 0-2.416 1.297 8.284 8.284 0 0 0-2.219 2.597 8.025 8.025 0 0 0-.559 1.257 8.468 8.468 0 0 0-.434 2.014c-.021.228-.033.451-.033.681s.007.458.024.687a8.282 8.282 0 0 0 .957 3.282c.11.203.224.4.349.593s.256.381.4.564.287.358.441.527.316.334.484.491.341.306.522.449.365.276.557.4.388.246.589.357a6.188 6.188 0 0 0 3.448 1.047h34.003a6.24 6.24 0 0 0 2.376-.477c.189-.079.371-.165.552-.262a6.031 6.031 0 0 0 .523-.314 6.218 6.218 0 0 0 1.353-1.226 6.214 6.214 0 0 0 1.385-3.332 5.652 5.652 0 0 0 0-1.219 6.432 6.432 0 0 0-.239-1.192 6.324 6.324 0 0 0-1.146-2.14c-.129-.157-.266-.309-.41-.453s-.3-.28-.452-.409a6.377 6.377 0 0 0-1.014-.679 6.145 6.145 0 0 0-1.127-.467 6.03 6.03 0 0 0-.592-.149 6.212 6.212 0 0 0-1.209-.122" style="fill:#f2f2f1"/>
        </g>
    </g>
</svg>
