<svg id="ico_weather_rain" xmlns="http://www.w3.org/2000/svg" width="78" height="78" viewBox="0 0 78 78">
    <defs>
        <clipPath id="clip-path">
            <path id="사각형_3498" data-name="사각형 3498" style="fill:none" d="M0 0h49.16v56.487H0z"/>
        </clipPath>
        <style>
            .cls-4{fill:#fc0}.cls-5{fill:#ec6e4c}.cls-7{fill:#9ef}
        </style>
    </defs>
    <g id="그룹_2794" data-name="그룹 2794" transform="translate(729 -1382)">
        <g id="그룹_2793" data-name="그룹 2793" transform="translate(-715 1393)">
            <g id="그룹_2792" data-name="그룹 2792" style="clip-path:url(#clip-path)">
                <path id="패스_2659" data-name="패스 2659" class="cls-4" d="M40.728 17.915a9.482 9.482 0 1 1-9.482-9.482 9.482 9.482 0 0 1 9.482 9.482"/>
                <path id="사각형_3486" data-name="사각형 3486" class="cls-4" transform="rotate(-45 29.656 -43.67)" d="M0 0h5.51v2H0z"/>
                <path id="사각형_3487" data-name="사각형 3487" class="cls-4" transform="rotate(-15.009 73.446 -157.598)" d="M0 0h5.511v2H0z"/>
                <path id="사각형_3488" data-name="사각형 3488" class="cls-4" transform="rotate(-74.99 36.115 -17.142)" d="M0 0h2v5.511H0z"/>
                <path id="사각형_3489" data-name="사각형 3489" class="cls-5" transform="rotate(-45 53.161 -33.936)" d="M0 0h2v5.51H0z"/>
                <path id="사각형_3490" data-name="사각형 3490" class="cls-5" transform="rotate(-15.007 132.6 -112.234)" d="M0 0h2v5.51H0z"/>
                <path id="사각형_3491" data-name="사각형 3491" class="cls-5" transform="rotate(-74.991 35.787 1.005)" d="M0 0h5.51v2H0z"/>
                <path id="사각형_3492" data-name="사각형 3492" class="cls-5" transform="rotate(-45 45.18 -6.194)" d="M0 0h5.51v2H0z"/>
                <path id="사각형_3493" data-name="사각형 3493" class="cls-5" transform="rotate(-15.009 88.953 -39.755)" d="M0 0h5.511v2H0z"/>
                <path id="사각형_3494" data-name="사각형 3494" class="cls-5" transform="rotate(-74.99 15.886 -1.614)" d="M0 0h2v5.511H0z"/>
                <path id="사각형_3495" data-name="사각형 3495" class="cls-4" transform="rotate(-45 15.684 -18.413)" d="M0 0h2v5.51H0z"/>
                <path id="사각형_3496" data-name="사각형 3496" class="cls-4" transform="rotate(-14.997 14.742 -96.793)" d="M0 0h2v5.51H0z"/>
                <path id="사각형_3497" data-name="사각형 3497" class="cls-4" transform="rotate(-74.991 20.26 -19.226)" d="M0 0h5.51v2H0z"/>
                <path id="패스_2660" data-name="패스 2660" d="M41.627 26.63h-.193a7.419 7.419 0 0 0 .34-2.268 7.6 7.6 0 0 0-.076-1.087 7.751 7.751 0 0 0-.229-1.066 7.6 7.6 0 0 0-.377-1.023 7.78 7.78 0 0 0-.517-.96 7.678 7.678 0 0 0-.648-.876 7.482 7.482 0 0 0-.765-.777 7.743 7.743 0 0 0-.866-.662 7.831 7.831 0 0 0-.951-.532 7.691 7.691 0 0 0-3.166-.732 7.608 7.608 0 0 0-1.088.06 7.687 7.687 0 0 0-3.065 1.079 7.59 7.59 0 0 0-.886.634q-.1-.447-.235-.883c-.091-.291-.2-.578-.314-.859s-.249-.557-.392-.826-.3-.532-.466-.787a10.088 10.088 0 0 0-1.798-2.061c-.23-.201-.469-.389-.717-.567s-.5-.345-.766-.5-.532-.3-.808-.427-.558-.247-.844-.352-.578-.195-.873-.273-.594-.141-.9-.192-.6-.087-.908-.109a9.993 9.993 0 0 0-2.726.173 10.35 10.35 0 0 0-1.749.524 10.247 10.247 0 0 0-1.625.837c-.258.164-.506.339-.747.526s-.474.384-.7.592-.437.426-.639.655-.4.464-.577.709-.352.5-.51.759-.3.529-.438.8-.254.554-.362.84-.2.575-.284.869-.149.591-.2.891-.094.6-.12.907-.039.608-.038.913a9.668 9.668 0 0 0 .182 1.9 7.667 7.667 0 0 0-1.248-.09 8.719 8.719 0 0 0-1.366.108 8.088 8.088 0 0 0-1.33.332 7.994 7.994 0 0 0-1.258.547 7.633 7.633 0 0 0-1.15.748 8.219 8.219 0 0 0-1.459 1.445 8.54 8.54 0 0 0-.754 1.144c-.11.2-.211.406-.3.615s-.177.421-.253.637-.141.436-.2.657-.1.445-.144.67-.068.453-.089.68-.035.464-.035.692.007.457.024.686.045.455.081.681.082.449.137.672.118.441.192.658.154.431.245.641.189.416.3.618.223.4.347.591.255.379.4.561.286.357.439.526.315.333.483.489.34.305.52.447.364.276.555.4.386.245.587.356a6.167 6.167 0 0 0 3.436 1.043h33.881a6.2 6.2 0 0 0 3.442-1.049 6.006 6.006 0 0 0 1.348-1.222 5.991 5.991 0 0 0 .363-.488 6.55 6.55 0 0 0 .574-1.072 6.185 6.185 0 0 0 .444-1.763 6.06 6.06 0 0 0-.239-2.405 6.1 6.1 0 0 0-.779-1.644 6.169 6.169 0 0 0-.771-.939 6.289 6.289 0 0 0-.94-.771q-.253-.17-.522-.314T44 27.1a5.739 5.739 0 0 0-.573-.2 5.921 5.921 0 0 0-.59-.149q-.3-.06-.6-.09c-.2-.021-.4-.03-.607-.031" style="fill:#f2f2f1"/>
                <path id="패스_2661" data-name="패스 2661" class="cls-7" d="M12.974 45.169 8.887 56.486h3.189l4.087-11.317z"/>
                <path id="패스_2662" data-name="패스 2662" class="cls-7" d="m22.563 45.169-4.087 11.317h3.189l4.087-11.317z"/>
                <path id="패스_2663" data-name="패스 2663" class="cls-7" d="m32.153 45.169-4.087 11.317h3.189l4.087-11.317z"/>
            </g>
        </g>
    </g>
</svg>
