<svg id="ico_weather_showerrain" xmlns="http://www.w3.org/2000/svg" width="78" height="78" viewBox="0 0 78 78">
    <defs>
        <clipPath id="clip-path">
            <path id="사각형_3483" data-name="사각형 3483" style="fill:none" d="M0 0h57.26v55.359H0z"/>
        </clipPath>
        <style>
            .cls-3{fill:#9ef}
        </style>
    </defs>
    <g id="그룹_2787" data-name="그룹 2787" transform="translate(10 11)">
        <path id="패스_2649" data-name="패스 2649" class="cls-3" d="M12.974 44.042 8.887 55.36h3.19l4.087-11.318z"/>
        <path id="패스_2650" data-name="패스 2650" class="cls-3" d="M22.563 44.042 18.476 55.36h3.19l4.087-11.318z"/>
        <path id="패스_2651" data-name="패스 2651" class="cls-3" d="M32.153 44.042 28.066 55.36h3.189l4.087-11.318z"/>
        <g id="그룹_2786" data-name="그룹 2786">
            <g id="그룹_2785" data-name="그룹 2785" style="clip-path:url(#clip-path)">
                <path id="패스_2652" data-name="패스 2652" d="M51.057 16.073h-.193a7.419 7.419 0 0 0 .34-2.268 7.6 7.6 0 0 0-.076-1.087 7.749 7.749 0 0 0-.229-1.066 7.65 7.65 0 0 0-.377-1.023 7.78 7.78 0 0 0-.517-.96 7.678 7.678 0 0 0-.648-.876 7.482 7.482 0 0 0-.765-.777 7.744 7.744 0 0 0-.866-.662 7.831 7.831 0 0 0-.951-.532 7.691 7.691 0 0 0-3.166-.732 7.608 7.608 0 0 0-1.088.06 7.687 7.687 0 0 0-3.065 1.079 7.59 7.59 0 0 0-.886.634q-.1-.447-.235-.883c-.091-.291-.2-.578-.314-.859s-.249-.557-.392-.826-.3-.532-.466-.787a10.088 10.088 0 0 0-1.798-2.061c-.23-.201-.469-.389-.717-.567s-.5-.345-.766-.5-.532-.3-.808-.427-.559-.247-.845-.353-.578-.2-.873-.273-.594-.141-.9-.192-.6-.087-.908-.109S28.944 0 28.639 0s-.609.025-.912.058-.6.08-.9.141-.594.136-.886.224-.58.189-.863.3-.56.241-.831.381-.536.292-.794.456-.506.339-.747.526-.474.384-.7.592-.437.426-.639.655-.4.464-.577.709-.352.5-.51.759-.3.529-.438.8-.254.554-.362.84-.2.575-.284.869-.149.591-.2.891-.094.6-.12.907-.039.608-.038.913a9.668 9.668 0 0 0 .182 1.9 7.667 7.667 0 0 0-1.248-.09 8.719 8.719 0 0 0-1.366.108 8.088 8.088 0 0 0-1.33.332 7.994 7.994 0 0 0-1.258.547 7.633 7.633 0 0 0-1.15.748 8.219 8.219 0 0 0-1.459 1.445 8.54 8.54 0 0 0-.754 1.144c-.11.2-.211.406-.3.615s-.177.421-.253.637-.141.436-.2.657-.1.445-.144.67-.068.453-.089.68-.031.457-.032.685.007.457.024.686.045.455.081.681.082.449.137.672.118.441.192.658.154.431.245.641.189.416.3.618.223.4.347.591.255.379.395.561.286.357.439.526.315.333.483.489.34.305.52.447.364.276.555.4.386.245.587.356a6.167 6.167 0 0 0 3.436 1.043h33.879a6.2 6.2 0 0 0 3.442-1.049 6.006 6.006 0 0 0 1.348-1.222 5.991 5.991 0 0 0 .363-.488 6.55 6.55 0 0 0 .574-1.072 6.185 6.185 0 0 0 .444-1.762 6.06 6.06 0 0 0-.239-2.405 6.126 6.126 0 0 0-.779-1.644 6.169 6.169 0 0 0-.771-.939 6.013 6.013 0 0 0-.451-.408 6.188 6.188 0 0 0-1.011-.676q-.269-.144-.55-.261a5.739 5.739 0 0 0-.573-.2 5.921 5.921 0 0 0-.59-.149q-.3-.06-.6-.09c-.2-.021-.4-.03-.607-.031" style="fill:#ccc"/>
                <path id="패스_2653" data-name="패스 2653" d="M41.627 25.5h-.193a7.419 7.419 0 0 0 .34-2.268 7.6 7.6 0 0 0-.076-1.087 7.751 7.751 0 0 0-.229-1.066 7.6 7.6 0 0 0-.377-1.023 7.78 7.78 0 0 0-.517-.96 7.678 7.678 0 0 0-.648-.876 7.482 7.482 0 0 0-.765-.777 7.743 7.743 0 0 0-.866-.662 7.831 7.831 0 0 0-.951-.532 7.691 7.691 0 0 0-3.166-.732 7.608 7.608 0 0 0-1.088.06 7.687 7.687 0 0 0-3.065 1.079 7.59 7.59 0 0 0-.886.634q-.1-.447-.235-.883c-.091-.291-.2-.578-.314-.859s-.249-.557-.392-.826-.3-.532-.466-.787a10.088 10.088 0 0 0-1.798-2.061c-.23-.201-.469-.389-.717-.567s-.5-.345-.766-.5-.532-.3-.808-.427-.558-.247-.844-.352-.578-.195-.873-.273-.594-.141-.9-.192-.6-.087-.908-.109a9.993 9.993 0 0 0-2.726.173 10.35 10.35 0 0 0-1.749.524 10.247 10.247 0 0 0-1.625.837c-.258.164-.506.339-.747.526s-.474.384-.7.592-.437.426-.639.655-.4.464-.577.709-.352.5-.51.759-.3.529-.438.8-.254.554-.362.84-.2.575-.284.869-.149.591-.2.891-.094.6-.12.907-.039.608-.038.913a9.668 9.668 0 0 0 .182 1.905 7.667 7.667 0 0 0-1.248-.09 8.719 8.719 0 0 0-1.366.108 8.088 8.088 0 0 0-1.33.332 7.994 7.994 0 0 0-1.258.547 7.633 7.633 0 0 0-1.15.748 8.219 8.219 0 0 0-1.459 1.445 8.54 8.54 0 0 0-.754 1.144c-.11.2-.211.406-.3.615s-.177.421-.253.637-.141.436-.2.657-.1.445-.144.67-.068.453-.089.68-.035.462-.035.69.007.457.024.685a8.234 8.234 0 0 0 .41 2.012c.074.217.154.431.245.641s.189.416.3.618.223.4.347.591.255.379.4.561.286.357.439.526.315.333.483.489.34.305.52.447.364.276.555.4.386.245.587.356a6.167 6.167 0 0 0 3.436 1.043h33.881a6.2 6.2 0 0 0 3.442-1.049 6.006 6.006 0 0 0 1.348-1.222 5.991 5.991 0 0 0 .363-.488 6.55 6.55 0 0 0 .574-1.072 6.185 6.185 0 0 0 .444-1.763 6.06 6.06 0 0 0-.237-2.402 6.126 6.126 0 0 0-.779-1.644 6.169 6.169 0 0 0-.771-.939 6.289 6.289 0 0 0-.94-.771q-.253-.17-.522-.314t-.55-.26a5.739 5.739 0 0 0-.573-.2 5.92 5.92 0 0 0-.59-.149q-.3-.06-.6-.09c-.2-.021-.4-.03-.607-.031" style="fill:#f2f2f1"/>
            </g>
        </g>
    </g>
</svg>
