<svg xmlns="http://www.w3.org/2000/svg" width="22" height="12" viewBox="0 0 22 12">
    <path data-name="패스 1440" d="M3204.425 1808.6a.745.745 0 0 0-.982-.323l-4.125 1.73-.034-2.13a2.072 2.072 0 0 0-2.107-2.034h-12.571a2.072 2.072 0 0 0-2.107 2.034v7.932a2.072 2.072 0 0 0 2.107 2.034h12.571a2.072 2.072 0 0 0 2.107-2.034l.034-2.127 4.125 1.73a.755.755 0 0 0 .328.073.72.72 0 0 0 .729-.712v-5.859a.686.686 0 0 0-.075-.314zm-13.531 6a2.761 2.761 0 1 1 2.857-2.759 2.81 2.81 0 0 1-2.858 2.759z" transform="translate(-3182.5 -1805.844)" style="fill:#306fd9"/>
</svg>
