<svg id="ico_weather_clearsky" xmlns="http://www.w3.org/2000/svg" width="78" height="78" viewBox="0 0 78 78">
    <defs>
        <clipPath id="clip-path">
            <path id="사각형_3418" data-name="사각형 3418" class="cls-1" d="M0 0h44.658v44.658H0z"/>
        </clipPath>
        <style>
            .cls-1{fill:#fc0}
        </style>
    </defs>
    <g id="그룹_2760" data-name="그룹 2760" transform="translate(17 17)">
        <g id="그룹_2755" data-name="그룹 2755" style="clip-path:url(#clip-path)">
            <path id="패스_2635" data-name="패스 2635" class="cls-1" d="M34.181 22.329a11.852 11.852 0 1 1-11.852-11.852 11.852 11.852 0 0 1 11.852 11.852"/>
            <path id="사각형_3406" data-name="사각형 3406" class="cls-1" transform="rotate(-45 28.932 -34.555)" d="M0 0h6.889v2H0z"/>
            <path id="사각형_3407" data-name="사각형 3407" class="cls-1" transform="rotate(-15.009 84.148 -133.665)" d="M0 0h6.889v2H0z"/>
            <path id="사각형_3408" data-name="사각형 3408" class="cls-1" transform="rotate(-74.999 36.614 -10.714)" d="M0 0h2v6.889H0z"/>
            <path id="사각형_3409" data-name="사각형 3409" class="cls-1" transform="rotate(-45 57.883 -22.562)" d="M0 0h2v6.889H0z"/>
            <path id="사각형_3410" data-name="사각형 3410" class="cls-1" transform="rotate(-15.001 157.072 -77.815)" d="M0 0h2v6.888H0z"/>
            <path id="사각형_3411" data-name="사각형 3411" class="cls-1" transform="rotate(-74.991 36.491 12.002)" d="M0 0h6.888v2H0z"/>
            <path id="사각형_3412" data-name="사각형 3412" class="cls-1" transform="rotate(-45 48.335 12.292)" d="M0 0h6.889v2H0z"/>
            <path id="사각형_3413" data-name="사각형 3413" class="cls-1" transform="rotate(-15.009 103.532 13.639)" d="M0 0h6.889v2H0z"/>
            <path id="사각형_3414" data-name="사각형 3414" class="cls-1" transform="rotate(-74.999 11.326 8.69)" d="M0 0h2v6.889H0z"/>
            <path id="사각형_3415" data-name="사각형 3415" class="cls-1" transform="rotate(-45 11.037 -3.157)" d="M0 0h2v6.889H0z"/>
            <path id="사각형_3416" data-name="사각형 3416" class="cls-1" transform="rotate(-15.001 9.692 -58.41)" d="M0 0h2v6.888H0z"/>
            <path id="사각형_3417" data-name="사각형 3417" class="cls-1" transform="rotate(-74.99 17.08 -13.288)" d="M0 0h6.888v2H0z"/>
        </g>
    </g>
</svg>
