<svg xmlns="http://www.w3.org/2000/svg" width="28" height="28" viewBox="0 0 28 28">
    <defs>
        <clipPath id="8aw4cp1u6a">
            <path data-name="사각형 2875" style="fill:current" d="M0 0h24.001v20.797H0z"/>
        </clipPath>
    </defs>
    <g data-name="그룹 2606" style="clip-path:url(#8aw4cp1u6a)" transform="translate(2 3.601)">
        <path data-name="패스 1638" d="M9 3.5A3.5 3.5 0 1 1 5.5 7 3.5 3.5 0 0 1 9 3.5M9 2a5 5 0 1 0 5 5 5 5 0 0 0-5-5" style="fill:current"/>
        <path data-name="패스 1639" d="M15 1.5a3.491 3.491 0 0 1 .325 6.967 6.378 6.378 0 0 1-.555 1.51c.078 0 .151.023.23.023a5 5 0 1 0-3.166-8.84 6.473 6.473 0 0 1 1.342.867A3.468 3.468 0 0 1 15 1.5" style="fill:current"/>
        <path data-name="패스 1640" d="M24 15.281a3.484 3.484 0 0 0-3.483-3.481h-7.146a6.469 6.469 0 0 1-.618.5h1.764a4.942 4.942 0 0 1 2.963 1h3.037a1.986 1.986 0 0 1 1.983 1.981V17.3h-3v1.5H24z" style="fill:current"/>
        <path data-name="패스 1641" d="M14.516 15.3a1.986 1.986 0 0 1 1.984 1.982V19.3h-15v-2.018A1.985 1.985 0 0 1 3.483 15.3zm0-1.5H3.483A3.483 3.483 0 0 0 0 17.282V20.8h18v-3.518a3.484 3.484 0 0 0-3.484-3.482" style="fill:current"/>
    </g>
</svg>
