<svg xmlns="http://www.w3.org/2000/svg" width="28" height="28" viewBox="0 0 28 28">
    <defs>
        <clipPath id="9xv8raus3a">
            <path data-name="사각형 2873" style="fill:current" d="M0 0h23.846v23.577H0z"/>
        </clipPath>
    </defs>
    <path data-name="사각형 760" style="fill:none" d="M0 0h28v28H0z"/>
    <g data-name="그룹 2599">
        <path data-name="사각형 2869" transform="translate(2.077 21.878)" style="fill:current" d="M0 0h13.611v1.435H0z"/>
        <g data-name="그룹 2602">
            <g data-name="그룹 2601" style="clip-path:url(#9xv8raus3a)" transform="translate(2.077 2.212)">
                <path data-name="패스 1631" d="M1.02 5.165a.568.568 0 0 0-.568.569v8.518a.968.968 0 0 0 .968.968H2.6v2.211a1.208 1.208 0 0 0 1.206 1.206h2.542a1.208 1.208 0 0 0 1.208-1.2v-2.212h9.329v-.383a1.5 1.5 0 0 1 .431-1.051H1.887V6.6h18.226v6.741h.456a1.486 1.486 0 0 1 .979.372V5.734a.568.568 0 0 0-.568-.569h-2.041L17.964 0H4.036L3.06 5.165zm3.018 10.06h2.083v1.982H4.038zm1.189-13.79h11.546l.7 3.73H4.526z" style="fill:current"/>
                <path data-name="패스 1632" d="M18.248 10.195a1.913 1.913 0 1 0-1.913 1.913 1.912 1.912 0 0 0 1.913-1.913m-1.913.478a.479.479 0 1 1 .478-.478.478.478 0 0 1-.478.478" style="fill:current"/>
                <path data-name="패스 1633" d="M5.665 8.282a1.913 1.913 0 1 0 1.913 1.913 1.912 1.912 0 0 0-1.913-1.913m0 2.391a.479.479 0 1 1 .478-.478.478.478 0 0 1-.478.478" style="fill:current"/>
                <path data-name="사각형 2870" transform="translate(15.111 17.025)" style="fill:current" d="M0 0h2.184v6.551H0z"/>
                <path data-name="사각형 2871" transform="translate(18.386 14.841)" style="fill:current" d="M0 0h2.184v8.735H0z"/>
                <path data-name="사각형 2872" transform="translate(21.662 19.209)" style="fill:current" d="M0 0h2.184v4.368H0z"/>
            </g>
        </g>
    </g>
</svg>
