<svg xmlns="http://www.w3.org/2000/svg" width="28" height="28" viewBox="0 0 28 28">
    <defs>
        <clipPath id="kemrm40lla">
            <path data-name="사각형 3283" style="fill:none" d="M0 0h25.8v23.701H0z"/>
        </clipPath>
    </defs>
    <path data-name="사각형 733" style="fill:none" d="M0 0h28v28H0z"/>
    <g data-name="그룹 2684">
        <path data-name="패스 1681" d="M8.044 14.676v-2.632H5.4v-2.025h2.644v-2.64h2.014v2.64H12.7v2.025h-2.64v2.632z" transform="translate(.573 1.348)" style="fill:#fff"/>
        <path data-name="사각형 3282" transform="translate(9.908 17.721)" style="fill:#fff" d="M0 0h7.828v1.8H0z"/>
        <g data-name="그룹 2685">
            <g data-name="그룹 2684" style="clip-path:url(#kemrm40lla)" transform="translate(1.1 2.15)">
                <path data-name="패스 1682" d="M20.719 23.7a3.535 3.535 0 0 1-3.474-2.982l-.011-.079H8.2l-.012.078a3.512 3.512 0 0 1-6.945 0l-.012-.079H.65a.648.648 0 0 1-.65-.644V3.7a.648.648 0 0 1 .65-.646H13.6v-.837a2.231 2.231 0 0 1 4.461 0v.842h1.17a.648.648 0 0 1 .619.446L22 10.1h3.15a.648.648 0 0 1 .65.646v9.251a.648.648 0 0 1-.65.646h-.95l-.012.078a3.534 3.534 0 0 1-3.469 2.979m0-5.347a1.843 1.843 0 1 0 1.855 1.847 1.852 1.852 0 0 0-1.855-1.843m-16.005 0A1.843 1.843 0 1 0 6.569 20.2a1.852 1.852 0 0 0-1.855-1.843m0-1.66a3.5 3.5 0 0 1 3.274 2.227l.023.058h9.409l.024-.058a3.525 3.525 0 0 1 6.508-.114l.178-.037v-7.017h-8.915l.013-7.042H1.671v13.7l.168-.237a3.541 3.541 0 0 1 2.875-1.487m12.174-6.59h3.354l-1.75-5.382H16.9zm-1.054-8.44a.559.559 0 0 0-.561.557v.826h1.121v-.826a.559.559 0 0 0-.561-.557" style="fill:#fff"/>
            </g>
        </g>
    </g>
</svg>
