<svg xmlns="http://www.w3.org/2000/svg" width="40" height="40" viewBox="0 0 40 40">
    <defs>
        <filter id="1agni04b7a" x="5.5" y="7.5" width="29" height="29" filterUnits="userSpaceOnUse">
            <feOffset dy="2"/>
            <feGaussianBlur stdDeviation="1.5" result="blur"/>
            <feFlood flood-opacity=".302"/>
            <feComposite operator="in" in2="blur"/>
            <feComposite in="SourceGraphic"/>
        </filter>
    </defs>
    <g style="filter:url(#1agni04b7a)">
        <g data-name="패스 1434" style="fill:#e60000">
            <path d="M16 19.5H4C2.07 19.5.5 17.93.5 16V4C.5 2.07 2.07.5 4 .5h12c1.93 0 3.5 1.57 3.5 3.5v12c0 1.93-1.57 3.5-3.5 3.5z" style="stroke:none" transform="translate(10 10)"/>
            <path d="M4 1C2.346 1 1 2.346 1 4v12c0 1.654 1.346 3 3 3h12c1.654 0 3-1.346 3-3V4c0-1.654-1.346-3-3-3H4m0-1h12a4 4 0 0 1 4 4v12a4 4 0 0 1-4 4H4a4 4 0 0 1-4-4V4a4 4 0 0 1 4-4z" style="fill:#fff;stroke:none" transform="translate(10 10)"/>
        </g>
    </g>
    <g data-name="그룹 2173" transform="translate(-1683.5 -556.932)">
        <rect data-name="사각형 2501" width="3" height="8" rx="1.5" transform="translate(1702 570.386)" style="fill:#fff"/>
        <rect data-name="사각형 2502" width="3" height="3" rx="1.5" transform="translate(1702 580.478)" style="fill:#fff"/>
    </g>
</svg>
