<svg xmlns="http://www.w3.org/2000/svg" width="28" height="28" viewBox="0 0 28 28">
    <g data-name="그룹 392">
        <path data-name="사각형 730" d="M.461-1h15.278C17.1-1 17.2-.9 17.2.461v19.361c0 1.357-.1 1.461-1.461 1.461H.461C-.9 21.283-1 21.179-1 19.822V.461C-1-.9-.9-1 .461-1zm14.278 20.417a.6.6 0 0 0 .594-.594V1.461a.6.6 0 0 0-.594-.594H1.461a.6.6 0 0 0-.594.594v17.361a.6.6 0 0 0 .594.594z" transform="translate(5.9 3.8)" style="fill:#333"/>
        <path data-name="타원 14" d="M3.2-1A4.2 4.2 0 1 1-1 3.2 4.2 4.2 0 0 1 3.2-1zm0 6.533A2.333 2.333 0 1 0 .867 3.2 2.336 2.336 0 0 0 3.2 5.533z" transform="translate(10.8 6.25)" style="fill:#333"/>
        <path data-name="타원 15" d="M3.2-1A4.2 4.2 0 1 1-1 3.2 4.2 4.2 0 0 1 3.2-1zm0 6.533A2.333 2.333 0 1 0 .867 3.2 2.336 2.336 0 0 0 3.2 5.533z" transform="translate(10.832 15.233)" style="fill:#333"/>
    </g>
    <path data-name="사각형 732" style="fill:none" d="M0 0h28v28H0z"/>
</svg>
