<svg xmlns="http://www.w3.org/2000/svg" width="28" height="28" viewBox="0 0 28 28">
    <path data-name="사각형 732" style="fill:none" d="M0 0h28v28H0z"/>
    <g data-name="그룹 2893">
        <path data-name="사각형 730" d="M.364-1h14.259c1.267 0 1.364.1 1.364 1.364v18.07c0 1.267-.1 1.364-1.364 1.364H.364C-.9 19.8-1 19.7-1 18.434V.364C-1-.9-.9-1 .364-1zM13.69 18.056a.555.555 0 0 0 .555-.555V1.3a.555.555 0 0 0-.555-.558H1.3a.555.555 0 0 0-.558.558v16.2a.555.555 0 0 0 .555.555z" transform="translate(6.507 4.601)" style="fill:#fff"/>
        <path data-name="타원 14" d="M2.92-1A3.92 3.92 0 1 1-1 2.92 3.924 3.924 0 0 1 2.92-1zm0 6.1A2.178 2.178 0 1 0 .742 2.92 2.18 2.18 0 0 0 2.92 5.1z" transform="translate(11.08 6.888)" style="fill:#fff"/>
        <path data-name="타원 15" d="M2.92-1A3.92 3.92 0 1 1-1 2.92 3.924 3.924 0 0 1 2.92-1zm0 6.1A2.178 2.178 0 1 0 .742 2.92 2.18 2.18 0 0 0 2.92 5.1z" transform="translate(11.11 15.272)" style="fill:#fff"/>
    </g>
</svg>
