<svg xmlns="http://www.w3.org/2000/svg" width="28" height="28" viewBox="0 0 28 28">
    <defs>
        <clipPath id="21t8xjlaya">
            <path data-name="사각형 2850" style="fill:current" d="M0 0h24.11v24.254H0z"/>
        </clipPath>
    </defs>
    <g data-name="그룹 2582" style="clip-path:url(#21t8xjlaya)" transform="translate(1.945 1.873)">
        <path data-name="패스 1603" d="m23.942 18.539-.744-.368a4.183 4.183 0 0 0-.433-1.041l.266-.789a.231.231 0 0 0-.031-.266l-.71-.712a.244.244 0 0 0-.269-.035l-.789.267a4.351 4.351 0 0 0-1.04-.434l-.369-.744a.236.236 0 0 0-.214-.164h-1a.238.238 0 0 0-.212.164l-.371.744a4.417 4.417 0 0 0-1.041.434l-.788-.267a.241.241 0 0 0-.266.035l-.711.712a.237.237 0 0 0-.035.266l.266.789a4.177 4.177 0 0 0-.431 1.041l-.746.368a.241.241 0 0 0-.164.214v1a.236.236 0 0 0 .164.214l.746.369a4.17 4.17 0 0 0 .431 1.04l-.266.789a.24.24 0 0 0 .035.269l.711.71a.232.232 0 0 0 .266.035l.791-.266a4.2 4.2 0 0 0 1.038.433l.371.744a.232.232 0 0 0 .212.164h1a.231.231 0 0 0 .214-.164l.369-.744a4.23 4.23 0 0 0 1.04-.433l.789.266a.237.237 0 0 0 .269-.035l.71-.71a.233.233 0 0 0 .035-.269l-.266-.789a4.123 4.123 0 0 0 .433-1.04l.744-.369a.233.233 0 0 0 .164-.214v-1a.233.233 0 0 0-.164-.214m-4.838 2.9a2.182 2.182 0 1 1 2.183-2.183 2.182 2.182 0 0 1-2.183 2.183z" style="fill:current"/>
        <path data-name="사각형 2847" transform="translate(6.103 3.439)" style="fill:current" d="M0 0h1.658v2.211H0z"/>
        <path data-name="사각형 2848" transform="translate(6.103 11.029)" style="fill:current" d="M0 0h1.658v2.211H0z"/>
        <path data-name="사각형 2849" transform="translate(6.103 15.395)" style="fill:current" d="M0 0h1.658v2.211H0z"/>
        <path data-name="패스 1604" d="M12.611 19.82v-.478H1.658v-7.96a4.769 4.769 0 0 0 .837-.523 5.866 5.866 0 0 1 4.454-1.6c1.921.3 3.923 1.928 5.952 4.848a4.791 4.791 0 0 0 1.093 1.131 1.5 1.5 0 0 1 .111-.166l.8-.8.039-.034a1.75 1.75 0 0 1 .233-.169 4.434 4.434 0 0 1-.915-.91c-2.3-3.308-4.674-5.172-7.06-5.54a7.174 7.174 0 0 0-5.544 1.8V1.658h8.352c1.085 5.1 5.222 5.354 5.958 5.354h3.374v5.742h.267a1.787 1.787 0 0 1 1.391.737V0H0v21h13.168a1.734 1.734 0 0 1-.557-1.18m6.731-18.162v3.694h-3.313c-.141 0-3.322.134-4.322-3.7z" style="fill:current"/>
    </g>
</svg>
