<svg xmlns="http://www.w3.org/2000/svg" width="28" height="28" viewBox="0 0 28 28">
    <defs>
        <clipPath id="rcxh0g4cca">
            <path data-name="사각형 2851" style="fill:current" d="M0 0h27.004v25.154H0z"/>
        </clipPath>
    </defs>
    <g data-name="그룹 2584" style="clip-path:url(#rcxh0g4cca)" transform="translate(.498 1.423)">
        <path data-name="패스 1605" d="m26.836 19.439-.744-.368a4.183 4.183 0 0 0-.433-1.041l.266-.789a.231.231 0 0 0-.031-.266l-.71-.712a.244.244 0 0 0-.269-.035l-.789.267a4.351 4.351 0 0 0-1.04-.434l-.369-.744a.236.236 0 0 0-.214-.164h-1a.238.238 0 0 0-.212.164l-.371.744a4.417 4.417 0 0 0-1.041.434l-.788-.267a.24.24 0 0 0-.266.035l-.711.712a.237.237 0 0 0-.035.266l.266.789a4.177 4.177 0 0 0-.431 1.041l-.746.368a.241.241 0 0 0-.164.214v1a.236.236 0 0 0 .164.214l.746.369a4.17 4.17 0 0 0 .431 1.04l-.266.789a.24.24 0 0 0 .035.269l.711.71a.232.232 0 0 0 .266.035l.791-.266a4.2 4.2 0 0 0 1.038.433l.371.744a.232.232 0 0 0 .212.164h1a.231.231 0 0 0 .214-.164l.369-.744a4.23 4.23 0 0 0 1.04-.433l.789.266a.237.237 0 0 0 .269-.035l.71-.71a.233.233 0 0 0 .035-.269l-.266-.789a4.123 4.123 0 0 0 .433-1.04l.744-.369a.233.233 0 0 0 .16-.214v-1a.233.233 0 0 0-.164-.214M22 22.339a2.182 2.182 0 1 1 2.183-2.183A2.182 2.182 0 0 1 22 22.339z" style="fill:current"/>
        <path data-name="패스 1606" d="M5.162 11.51v.719H6.6v-1.438H5.162z" style="fill:current"/>
        <path data-name="패스 1607" d="M2.346 11.51v.719h1.439v-1.438H2.346z" style="fill:current"/>
        <path data-name="패스 1608" d="m16.676 22.533.05-.148c-.011-.026-.023-.053-.033-.08l-.137-.067a1.739 1.739 0 0 1-.766-.657h-8.6v-3.748a2.008 2.008 0 0 0-2.006-2.007H1.439V7.193h3.749a2.008 2.008 0 0 0 2.006-2.007V1.438h8.633v3.748a2.009 2.009 0 0 0 2.007 2.007h3.749v6.463h.92a1.939 1.939 0 0 1 .518.093V5.754h-5.187a.568.568 0 0 1-.568-.568V0H5.756v5.186a.568.568 0 0 1-.568.568H0v11.511h5.188a.568.568 0 0 1 .568.568v5.186h10.81a1.672 1.672 0 0 1 .11-.486" style="fill:current"/>
        <path data-name="패스 1609" d="M11.511 7.481a4.029 4.029 0 1 0 4.029 4.029 4.029 4.029 0 0 0-4.029-4.029m0 6.619a2.59 2.59 0 1 1 2.59-2.59 2.59 2.59 0 0 1-2.59 2.59" style="fill:current"/>
        <path data-name="패스 1610" d="M11.511 6.6h.719V5.161h-1.438V6.6z" style="fill:current"/>
        <path data-name="패스 1611" d="M11.511 3.785h.719V2.346h-1.438v1.439z" style="fill:current"/>
        <path data-name="패스 1612" d="M16.421 11.51v.719h1.439v-1.438h-1.439z" style="fill:current"/>
        <path data-name="패스 1613" d="M19.236 11.51v.719h1.439v-1.438h-1.439z" style="fill:current"/>
        <path data-name="패스 1614" d="M11.51 16.419h-.719v1.439h1.438v-1.439z" style="fill:current"/>
        <path data-name="패스 1615" d="M11.51 19.234h-.719v1.439h1.438v-1.439z" style="fill:current"/>
    </g>
</svg>
