<svg xmlns="http://www.w3.org/2000/svg" width="40" height="40" viewBox="0 0 40 40">
    <defs>
        <clipPath id="olygjydpna">
            <path data-name="사각형 2463" style="fill:#fff;stroke:#707070;opacity:0" d="M0 0h40v40H0z"/>
        </clipPath>
        <filter id="ojdfb8y9jb" x="1.358" y="3.358" width="37.284" height="37.284" filterUnits="userSpaceOnUse">
            <feOffset dy="2"/>
            <feGaussianBlur stdDeviation="1.5" result="blur"/>
            <feFlood flood-opacity=".302"/>
            <feComposite operator="in" in2="blur"/>
            <feComposite in="SourceGraphic"/>
        </filter>
    </defs>
    <g data-name="마스크 그룹 19" style="clip-path:url(#olygjydpna)">
        <g style="filter:url(#ojdfb8y9jb)">
            <g data-name="패스 1458" style="fill:#3f4a4a">
                <path d="M16 19.5H4C2.07 19.5.5 17.93.5 16V4C.5 2.07 2.07.5 4 .5h12c1.93 0 3.5 1.57 3.5 3.5v12c0 1.93-1.57 3.5-3.5 3.5z" style="stroke:none" transform="rotate(45 2.926 27.072)"/>
                <path d="M4 1C2.346 1 1 2.346 1 4v12c0 1.654 1.346 3 3 3h12c1.654 0 3-1.346 3-3V4c0-1.654-1.346-3-3-3H4m0-1h12a4 4 0 0 1 4 4v12a4 4 0 0 1-4 4H4a4 4 0 0 1-4-4V4a4 4 0 0 1 4-4z" style="fill:#fff;stroke:none" transform="rotate(45 2.926 27.072)"/>
            </g>
        </g>
        <g data-name="그룹 2208">
            <path data-name="패스 1457" d="M8.987 5.253H3.664l2.919-2.922L5.253 1 0 6.253l5.253 5.255 1.33-1.33-2.924-2.925h3.328a2.977 2.977 0 0 1 2.974 2.974v5.114h2v-5.114a4.979 4.979 0 0 0-4.974-4.974" transform="rotate(45 -1.485 30.9)" style="fill:#6fe600"/>
        </g>
    </g>
</svg>
