<svg xmlns="http://www.w3.org/2000/svg" width="28" height="28" viewBox="0 0 28 28">
    <defs>
        <clipPath id="w5bef3w9pa">
            <path data-name="사각형 2855" style="fill:current" d="M0 0h25.659v24.267H0z"/>
        </clipPath>
    </defs>
    <g data-name="그룹 2588" style="clip-path:url(#w5bef3w9pa)" transform="translate(1.17 1.867)">
        <path data-name="패스 1619" d="m25.491 18.552-.744-.368a4.183 4.183 0 0 0-.433-1.041l.266-.789a.232.232 0 0 0-.035-.266l-.71-.712a.244.244 0 0 0-.269-.035l-.789.267a4.351 4.351 0 0 0-1.04-.434l-.369-.744a.236.236 0 0 0-.214-.164h-1a.238.238 0 0 0-.212.164l-.371.744a4.417 4.417 0 0 0-1.041.434l-.788-.267a.241.241 0 0 0-.266.035l-.711.712a.237.237 0 0 0-.035.266l.266.789a4.177 4.177 0 0 0-.431 1.041l-.746.368a.241.241 0 0 0-.164.214v1a.236.236 0 0 0 .164.214l.746.369a4.166 4.166 0 0 0 .435 1.04l-.266.789a.24.24 0 0 0 .035.269l.711.71a.232.232 0 0 0 .266.035l.791-.266a4.2 4.2 0 0 0 1.038.433l.371.744a.232.232 0 0 0 .212.164h1a.231.231 0 0 0 .214-.164l.369-.744a4.23 4.23 0 0 0 1.04-.433l.789.266a.237.237 0 0 0 .269-.035l.71-.71a.233.233 0 0 0 .035-.269l-.266-.789a4.123 4.123 0 0 0 .433-1.04l.744-.369a.234.234 0 0 0 .164-.214v-1a.235.235 0 0 0-.164-.214m-4.838 2.9a2.182 2.182 0 1 1 2.183-2.183 2.182 2.182 0 0 1-2.183 2.183z" style="fill:current"/>
        <path data-name="패스 1620" d="M8.224 10.112h2.169V8.285H8.224V6.116H6.406v2.169H4.233v1.827h2.173v2.162h1.818z" style="fill:current"/>
        <path data-name="사각형 2854" transform="translate(8.217 14.297)" style="fill:current" d="M0 0h6.595v1.5H0z"/>
        <path data-name="패스 1621" d="m15.208 17.181.136-.067.032-.078-.045-.135h-7.65a3.112 3.112 0 0 0-5.89 0H1.5V4.077h12.051v6.269H21.5v2.475a1.741 1.741 0 0 1 1.238 1l.069.14.078.032.115-.043V9.5a.657.657 0 0 0-.657-.657h-2.732l-1.878-5.81a.657.657 0 0 0-.625-.455h-1.026v-.593a1.985 1.985 0 0 0-3.97 0v.592H.657A.657.657 0 0 0 0 3.234v14.51a.657.657 0 0 0 .657.657h1a3.117 3.117 0 0 0 6.166 0h6.394a1.717 1.717 0 0 1 .995-1.22m-.157-13.1H16.5l1.539 4.769h-2.988zm-1.443-2.1a.485.485 0 1 1 .97 0v.3h-.97zM4.736 19.557a1.632 1.632 0 1 1 1.631-1.633 1.633 1.633 0 0 1-1.631 1.632" style="fill:current"/>
        <path data-name="패스 1622" d="M16.909 17.317c.022-.042.039-.085.062-.126-.021.042-.044.082-.062.126" style="fill:current"/>
    </g>
</svg>
