<svg xmlns="http://www.w3.org/2000/svg" width="28" height="28" viewBox="0 0 28 28">
    <defs>
        <clipPath id="whjrlatgwa">
            <path data-name="사각형 2853" style="fill:current" d="M0 0h25v22.4H0z"/>
        </clipPath>
    </defs>
    <path data-name="사각형 762" style="fill:none" d="M0 0h28v28H0z"/>
    <g data-name="그룹 2586" style="clip-path:url(#whjrlatgwa)" transform="translate(1.5 2.8)">
        <path data-name="패스 1616" d="m24.836 16.685-.744-.368a4.183 4.183 0 0 0-.433-1.041l.266-.789a.23.23 0 0 0-.035-.265l-.71-.713a.244.244 0 0 0-.269-.035l-.789.267a4.352 4.352 0 0 0-1.04-.434l-.369-.743a.237.237 0 0 0-.213-.164h-1a.237.237 0 0 0-.212.165l-.371.743a4.46 4.46 0 0 0-1.041.434l-.788-.267a.241.241 0 0 0-.266.035l-.711.713a.234.234 0 0 0-.035.265l.266.789a4.177 4.177 0 0 0-.431 1.041l-.746.368A.241.241 0 0 0 15 16.9v1a.236.236 0 0 0 .164.214l.746.369a4.186 4.186 0 0 0 .431 1.04l-.266.789a.24.24 0 0 0 .035.269l.711.71a.232.232 0 0 0 .266.035l.791-.266a4.2 4.2 0 0 0 1.038.433l.371.744a.232.232 0 0 0 .212.164h1a.231.231 0 0 0 .214-.164l.369-.744a4.23 4.23 0 0 0 1.04-.433l.789.266a.237.237 0 0 0 .269-.035l.71-.71a.233.233 0 0 0 .035-.269l-.266-.789a4.123 4.123 0 0 0 .433-1.04l.744-.369A.233.233 0 0 0 25 17.9v-1a.233.233 0 0 0-.164-.214M20 19.586a2.182 2.182 0 1 1 2.183-2.186A2.182 2.182 0 0 1 20 19.586z" style="fill:current"/>
        <path data-name="사각형 2852" transform="translate(2.706 13.401)" style="fill:current" d="M0 0h5.411v1.5H0z"/>
        <path data-name="패스 1617" d="M14.2 6.764a2.029 2.029 0 1 0-2.029-2.029A2.028 2.028 0 0 0 14.2 6.764zm0-2.558a.529.529 0 1 1-.529.529.529.529 0 0 1 .529-.529" style="fill:current"/>
        <path data-name="패스 1618" d="M13.5 17.032v-.087a1.732 1.732 0 0 1 .29-.858H1.5V1.5h15.939v10.652a1.608 1.608 0 0 1 .18.052l.149.05.079-.033.069-.138a1.727 1.727 0 0 1 1.492-1.048h1.169a1.751 1.751 0 0 1 1.506 1.047l.069.141.078.032.152-.051a1.742 1.742 0 0 1 .618-.12V4.735l-4.061.906V1.353A1.353 1.353 0 0 0 17.586 0H1.353A1.353 1.353 0 0 0 0 1.353v14.881a1.353 1.353 0 0 0 1.353 1.353H13.5zm5.589-9.888 2.411-.538v4.375l-2.411-.538z" style="fill:current"/>
    </g>
</svg>
