<svg id="ico_weather_brokenclouds" xmlns="http://www.w3.org/2000/svg" xmlns:xlink="http://www.w3.org/1999/xlink" width="78" height="78" viewBox="0 0 78 78">
  <defs>
    <style>
      .cls-1 {
        fill: none;
      }

      .cls-2 {
        fill: #fff;
        opacity: 0;
      }

      .cls-3 {
        clip-path: url(#clip-path);
      }

      .cls-4 {
        fill: #ccc;
      }

      .cls-5 {
        fill: #f2f2f1;
      }
    </style>
    <clipPath id="clip-path">
      <rect id="사각형_3449" data-name="사각형 3449" class="cls-1" width="53.44" height="36.656" transform="translate(0 0)"/>
    </clipPath>
  </defs>
  <rect id="사각형_3435" data-name="사각형 3435" class="cls-2" width="78" height="78"/>
  <g id="그룹_2766" data-name="그룹 2766" transform="translate(12 21)">
    <g id="그룹_2765" data-name="그룹 2765" class="cls-3">
      <path id="패스_2640" data-name="패스 2640" class="cls-4" d="M47.857,14.466h-.174a6.667,6.667,0,0,0,.306-2.041,6.825,6.825,0,0,0-.068-.979,6.966,6.966,0,0,0-.206-.959,7.059,7.059,0,0,0-.339-.921A6.971,6.971,0,0,0,46.91,8.7a6.958,6.958,0,0,0-1.271-1.488,7.052,7.052,0,0,0-.78-.6,6.932,6.932,0,0,0-2.727-1.054,6.939,6.939,0,0,0-2.92.162,6.954,6.954,0,0,0-2.594,1.35q-.087-.4-.21-.8t-.284-.772c-.106-.254-.224-.5-.352-.745s-.269-.478-.42-.708-.311-.451-.482-.666-.351-.422-.541-.62-.388-.388-.6-.568-.422-.35-.645-.511-.453-.31-.69-.45-.479-.267-.727-.384-.5-.223-.76-.317S30.391.366,30.126.3s-.534-.128-.805-.173-.543-.078-.817-.1S27.956,0,27.681,0s-.548.023-.821.052-.544.073-.813.128-.536.121-.8.2-.522.17-.777.273-.5.217-.748.343-.482.263-.714.41-.455.306-.673.474-.426.346-.626.533-.393.384-.575.589-.356.418-.52.639-.316.448-.458.683-.274.476-.394.723-.229.5-.326.755-.182.518-.256.782-.134.533-.182.8-.086.542-.109.816-.035.547-.034.822a8.733,8.733,0,0,0,.164,1.714A6.813,6.813,0,0,0,17.9,10.66q-.309,0-.617.023c-.2.016-.41.041-.613.074s-.4.075-.6.125-.4.107-.592.174-.387.14-.576.222-.374.172-.556.269-.358.2-.531.314-.341.231-.5.356-.321.258-.473.4-.3.284-.438.435-.274.307-.4.469-.247.329-.361.5-.219.348-.318.528-.19.365-.274.553-.159.38-.228.574-.127.392-.179.591-.094.4-.13.6-.061.406-.079.611-.028.411-.029.617.006.411.022.617.04.41.072.613.074.4.123.6.107.4.173.593.139.387.221.577.17.374.267.556.2.359.313.532.229.341.355.505.257.321.395.473.284.3.434.44.307.275.468.4.328.248.5.362.348.22.528.32a5.566,5.566,0,0,0,3.093.939h30.5c.183,0,.365-.01.547-.028s.362-.046.542-.081.356-.081.531-.134.346-.115.515-.185a5.33,5.33,0,0,0,.495-.235c.161-.086.318-.18.469-.281a5.45,5.45,0,0,0,.44-.327,5.243,5.243,0,0,0,.406-.368q.194-.193.368-.405c.116-.141.224-.288.326-.44a5.443,5.443,0,0,0,.282-.469c.086-.161.165-.326.235-.495s.131-.341.185-.516.1-.351.133-.531a5.426,5.426,0,0,0,.081-.541,5.357,5.357,0,0,0,0-1.094,5.47,5.47,0,0,0-.081-.541q-.054-.268-.133-.531c-.054-.175-.115-.347-.185-.516s-.149-.333-.235-.494a5.46,5.46,0,0,0-.282-.47c-.1-.152-.21-.3-.326-.439a5.587,5.587,0,0,0-.774-.774,5.211,5.211,0,0,0-.44-.326,5.3,5.3,0,0,0-.469-.282q-.241-.129-.495-.234a5.266,5.266,0,0,0-.515-.185,5.428,5.428,0,0,0-.531-.134q-.27-.054-.542-.081c-.182-.019-.364-.027-.547-.028"/>
      <path id="패스_2641" data-name="패스 2641" class="cls-5" d="M41.627,24.251h-.193a7.419,7.419,0,0,0,.34-2.268A7.6,7.6,0,0,0,41.7,20.9a7.751,7.751,0,0,0-.229-1.066,7.6,7.6,0,0,0-.377-1.023,7.78,7.78,0,0,0-.517-.96,7.678,7.678,0,0,0-.648-.876,7.482,7.482,0,0,0-.765-.777,7.743,7.743,0,0,0-.866-.662A7.831,7.831,0,0,0,37.345,15a7.691,7.691,0,0,0-3.166-.732,7.608,7.608,0,0,0-1.088.06,7.687,7.687,0,0,0-3.065,1.079,7.59,7.59,0,0,0-.886.634q-.1-.447-.235-.883c-.091-.291-.2-.578-.314-.859s-.249-.557-.392-.826-.3-.532-.466-.787-.346-.5-.536-.741-.39-.468-.6-.689-.432-.43-.662-.631-.469-.389-.717-.567-.5-.345-.766-.5-.532-.3-.808-.427-.558-.247-.844-.352-.578-.2-.873-.273-.594-.141-.9-.192-.6-.087-.908-.109-.609-.032-.914-.026-.609.025-.912.058-.605.08-.9.141-.594.136-.886.224-.58.189-.863.3-.56.241-.831.381-.536.292-.794.456-.506.339-.747.526-.474.384-.7.592-.437.426-.639.655-.4.464-.577.709-.352.5-.51.759-.3.529-.438.8-.254.554-.362.84-.2.575-.284.869-.149.591-.2.891-.094.6-.12.907-.039.608-.038.913a9.668,9.668,0,0,0,.182,1.9,7.667,7.667,0,0,0-1.248-.09c-.229,0-.458.008-.686.026s-.454.045-.68.082-.45.083-.672.139-.442.119-.658.193-.43.156-.64.247-.416.191-.618.3-.4.224-.59.348-.379.257-.56.4-.356.287-.526.441-.331.316-.487.483-.3.342-.446.521-.274.366-.4.557-.244.387-.354.587-.211.406-.3.615-.177.421-.253.637-.141.436-.2.657-.1.445-.144.67-.068.453-.089.68S0,28.057,0,28.285s.007.457.024.686.045.455.081.681.082.449.137.672.118.441.192.658.154.431.245.641.189.416.3.618.223.4.347.591.255.379.4.561.286.357.439.526.315.333.483.489.34.305.52.447.364.276.555.4.386.245.587.356a6.167,6.167,0,0,0,3.436,1.043H41.627c.2,0,.405-.011.607-.031s.4-.05.6-.09.4-.089.59-.148.386-.128.573-.206.371-.165.55-.261.353-.2.522-.313.332-.234.489-.362.307-.265.451-.409.279-.294.408-.451a5.99,5.99,0,0,0,.363-.488c.112-.169.217-.343.313-.522s.183-.362.261-.55.146-.378.205-.572.109-.391.149-.59.069-.4.09-.6.03-.4.031-.607-.011-.406-.031-.608-.051-.4-.09-.6-.09-.395-.149-.59-.127-.385-.205-.573-.165-.37-.261-.549-.2-.353-.313-.522-.234-.331-.363-.488-.265-.308-.408-.451-.294-.28-.451-.408a5.947,5.947,0,0,0-.489-.363q-.253-.169-.522-.314t-.55-.26a5.739,5.739,0,0,0-.573-.2,5.921,5.921,0,0,0-.59-.149q-.3-.06-.6-.09c-.2-.021-.4-.03-.607-.031"/>
    </g>
  </g>
</svg>
