<svg id="ico_weather_fewclouds" xmlns="http://www.w3.org/2000/svg" xmlns:xlink="http://www.w3.org/1999/xlink" width="78" height="78" viewBox="0 0 78 78">
  <defs>
    <style>
      .cls-1 {
        fill: none;
      }

      .cls-2 {
        fill: #fff;
        opacity: 0;
      }

      .cls-3 {
        clip-path: url(#clip-path);
      }

      .cls-4 {
        fill: #fc0;
      }

      .cls-5 {
        fill: #ec6e4c;
      }

      .cls-6 {
        fill: #f2f2f1;
      }
    </style>
    <clipPath id="clip-path">
      <rect id="사각형_3432" data-name="사각형 3432" class="cls-1" width="49.157" height="38.978" transform="translate(0 0)"/>
    </clipPath>
  </defs>
  <rect id="사각형_3499" data-name="사각형 3499" class="cls-2" width="78" height="78"/>
  <g id="그룹_2758" data-name="그룹 2758" class="cls-3" transform="translate(14 20)">
    <path id="패스_2636" data-name="패스 2636" class="cls-4" d="M40.724,17.915a9.482,9.482,0,1,1-9.482-9.482,9.482,9.482,0,0,1,9.482,9.482"/>
    <rect id="사각형_3420" data-name="사각형 3420" class="cls-4" width="5.51" height="2" transform="translate(39.563 8.179) rotate(-45)"/>
    <rect id="사각형_3421" data-name="사각형 3421" class="cls-4" width="5.511" height="2" transform="translate(43.316 13.644) rotate(-15.009)"/>
    <rect id="사각형_3422" data-name="사각형 3422" class="cls-4" width="2" height="5.511" transform="matrix(0.259, -0.966, 0.966, 0.259, 43.316, 22.185)"/>
    <rect id="사각형_3423" data-name="사각형 3423" class="cls-5" width="2" height="5.51" transform="matrix(0.707, -0.707, 0.707, 0.707, 39.564, 27.65)"/>
    <rect id="사각형_3424" data-name="사각형 3424" class="cls-5" width="2" height="5.51" transform="translate(33.581 30.506) rotate(-14.997)"/>
    <rect id="사각형_3425" data-name="사각형 3425" class="cls-5" width="5.51" height="2" transform="translate(25.545 35.311) rotate(-74.991)"/>
    <rect id="사각형_3426" data-name="사각형 3426" class="cls-5" width="5.51" height="2" transform="translate(17.61 30.133) rotate(-45)"/>
    <rect id="사각형_3427" data-name="사각형 3427" class="cls-5" width="5.511" height="2" transform="translate(13.327 21.68) rotate(-15.009)"/>
    <rect id="사각형_3428" data-name="사각형 3428" class="cls-5" width="2" height="5.511" transform="matrix(0.259, -0.966, 0.966, 0.259, 13.327, 14.15)"/>
    <rect id="사각형_3429" data-name="사각형 3429" class="cls-4" width="2" height="5.51" transform="translate(17.61 5.696) rotate(-44.993)"/>
    <rect id="사각형_3430" data-name="사각형 3430" class="cls-4" width="2" height="5.51" transform="translate(25.545 0.518) rotate(-14.997)"/>
    <rect id="사각형_3431" data-name="사각형 3431" class="cls-4" width="5.51" height="2" transform="translate(33.58 5.322) rotate(-74.991)"/>
    <path id="패스_2637" data-name="패스 2637" class="cls-6" d="M41.627,26.573h-.193a7.419,7.419,0,0,0,.34-2.268,7.6,7.6,0,0,0-.076-1.087,7.751,7.751,0,0,0-.229-1.066,7.6,7.6,0,0,0-.377-1.023,7.78,7.78,0,0,0-.517-.96,7.678,7.678,0,0,0-.648-.876,7.482,7.482,0,0,0-.765-.777,7.743,7.743,0,0,0-.866-.662,7.831,7.831,0,0,0-.951-.532,7.691,7.691,0,0,0-3.166-.732,7.608,7.608,0,0,0-1.088.06,7.687,7.687,0,0,0-3.065,1.079,7.59,7.59,0,0,0-.886.634q-.1-.447-.235-.883c-.091-.291-.2-.578-.314-.859s-.249-.557-.392-.826-.3-.532-.466-.787-.346-.5-.536-.741-.39-.468-.6-.689-.432-.43-.662-.631-.469-.389-.717-.567-.5-.345-.766-.5-.532-.3-.808-.427-.558-.247-.844-.352-.578-.195-.873-.273-.594-.141-.9-.192-.6-.087-.908-.109-.609-.032-.914-.026-.609.025-.912.058-.605.08-.9.141-.594.136-.886.224-.58.189-.863.3-.56.241-.831.381-.536.292-.794.456-.506.339-.747.526-.474.384-.7.592-.437.426-.639.655-.4.464-.577.709-.352.5-.51.759-.3.529-.438.8-.254.554-.362.84-.2.575-.284.869-.149.591-.2.891-.094.6-.12.907-.039.608-.038.913a9.668,9.668,0,0,0,.182,1.905,7.667,7.667,0,0,0-1.248-.09c-.229,0-.458.008-.686.026s-.454.045-.68.082-.45.083-.672.139-.442.119-.658.193-.43.156-.64.247-.416.191-.618.3-.4.224-.59.348-.379.257-.56.4-.356.287-.526.441-.331.316-.487.483-.3.342-.446.521-.274.366-.4.557-.244.387-.354.587-.211.406-.3.615-.177.421-.253.637-.141.436-.2.657-.1.445-.144.67-.068.453-.089.68S0,30.379,0,30.607s.007.457.024.686.045.455.081.681.082.449.137.672.118.441.192.658.154.431.245.641.189.416.3.618.223.4.347.591.255.379.4.561.286.357.439.526.315.333.483.489.34.305.52.447.364.276.555.4.386.245.587.356a6.167,6.167,0,0,0,3.436,1.043H41.627c.2,0,.405-.011.607-.031s.4-.05.6-.09.4-.089.59-.148.386-.128.573-.206.371-.165.55-.261.353-.2.522-.313.332-.234.489-.362.307-.265.451-.409.279-.294.408-.451a5.991,5.991,0,0,0,.363-.488c.112-.169.217-.343.313-.522s.183-.362.261-.55.146-.378.205-.572.109-.391.149-.59.069-.4.09-.6.03-.4.031-.607-.011-.406-.031-.608-.051-.4-.09-.6-.09-.4-.149-.59-.127-.385-.205-.573-.165-.37-.261-.549-.2-.353-.313-.522-.234-.331-.363-.488-.265-.308-.408-.451-.294-.28-.451-.408a5.947,5.947,0,0,0-.489-.363q-.253-.169-.522-.314t-.55-.26a5.739,5.739,0,0,0-.573-.2,5.921,5.921,0,0,0-.59-.149q-.3-.06-.6-.09c-.2-.021-.4-.03-.607-.031"/>
  </g>
</svg>
